# xmcd CD database file generated by Grip 3.2.0
# 
# Track frame offsets:
#       150
#       18915
#       37475
#       53112
#       74277
#       88625
#       104443
#       116143
#       129844
#       143022
#       158399
#       179489
#       195627
#       207924
# 
# Disc length: 2970 seconds
# 
# Revision: 2
# Processed by: cddbd v1.5.1PL0 Copyright (c) Steve Scherf et al.
# Submitted via: Grip 3.2.0
# 
DISCID=c20b980e
DTITLE=Neznámý - Neznámý
DYEAR=1900
DGENRE=Blues
TTITLE0=Skladba 1
TTITLE1=Skladba 2
TTITLE2=Skladba 3
TTITLE3=Skladba 4
TTITLE4=Skladba 5
TTITLE5=Skladba 6
TTITLE6=Skladba 7
TTITLE7=Skladba 8
TTITLE8=Skladba 9
TTITLE9=Skladba 10
TTITLE10=Skladba 11
TTITLE11=Skladba 12
TTITLE12=Skladba 13
TTITLE13=Skladba 14
EXTD=
EXTT0=
EXTT1=
EXTT2=
EXTT3=
EXTT4=
EXTT5=
EXTT6=
EXTT7=
EXTT8=
EXTT9=
EXTT10=
EXTT11=
EXTT12=
EXTT13=
PLAYORDER=
